<svg height="26" viewBox="0 0 90 26" width="90" xmlns="http://www.w3.org/2000/svg"><g fill="#191d2f"><path d="m10 21.87a5.39 5.39 0 0 1 -5.51-5.61 5.21 5.21 0 0 1 5.35-5.51 7 7 0 0 1 4.61 1.91l2-3.07a8.93 8.93 0 0 0 -6.87-2.65 9.15 9.15 0 0 0 -9.58 9.37 9.15 9.15 0 0 0 9.58 9.37 10 10 0 0 0 7.25-2.91l-1.69-3.18a8.11 8.11 0 0 1 -5.14 2.28z"/><path d="m27.37 6.94c-5.35 0-9.69 3.86-9.69 9.37s4.34 9.32 9.74 9.37 9.69-3.86 9.69-9.37-4.34-9.37-9.74-9.37zm.05 14.93a5.3 5.3 0 0 1 -5.24-5.56 5.3 5.3 0 0 1 5.24-5.56 5.19 5.19 0 0 1 1.29.18 3.49 3.49 0 1 0 3.64 3.47 6.09 6.09 0 0 1 .32 1.91 5.27 5.27 0 0 1 -5.25 5.56z"/><path d="m49 6.89a6.15 6.15 0 0 0 -5.29 2.59h-.05s.05-.58.05-1.48v-7.68h-4.32v24.88h4.13v-1c0-.69-.05-1.22-.05-1.22h.05a6.2 6.2 0 0 0 5.24 2.65c4.66 0 8.1-3.71 8.1-9.37s-3.07-9.37-7.86-9.37zm-1 15c-3 0-4.39-2.75-4.39-5.51 0-4 2.17-5.66 4.45-5.66 2.59 0 4.39 2.22 4.39 5.61.02 3.58-2 5.59-4.45 5.59z"/><path d="m68.51 6.94c-5.35 0-9.69 3.86-9.69 9.37s4.34 9.37 9.74 9.37 9.69-3.86 9.69-9.37-4.34-9.37-9.74-9.37zm.05 14.93a5.24 5.24 0 0 1 -5.24-5.56 5.3 5.3 0 0 1 5.24-5.56 5.22 5.22 0 0 1 1.17.14 3.53 3.53 0 1 0 3.79 3.64 6.11 6.11 0 0 1 .28 1.77 5.27 5.27 0 0 1 -5.24 5.57z"/><path d="m89.21 21.44a3.15 3.15 0 0 1 -3.49-3.39v-6.93h4v-3.55h-4v-5.13h-4.3v5.19h-2.42v3.55h2.28v7.52c0 6 4.87 6.72 7.31 6.72a7.72 7.72 0 0 0 1.41-.11v-3.92a5.34 5.34 0 0 1 -.79.05z"/></g></svg>